<?xml version="1.0" encoding="UTF-8"?>
<svg width="376px" height="250px" viewBox="0 0 376 250" version="1.1" xmlns="http://www.w3.org/2000/svg" xmlns:xlink="http://www.w3.org/1999/xlink">
    <title>bg-pattern</title>
    <g id="UI-KIT" stroke="none" stroke-width="1" fill="none" fill-rule="evenodd">
        <g id="Login" transform="translate(1.000000, 0.000000)">
            <g id="bg-pattern" transform="translate(-1.000000, 0.000000)">
                <rect id="Shape" fill="#ECECF4" x="0.722419929" y="0" width="375" height="250"></rect>
                <rect id="Shape" fill="#111747" x="62.7224199" y="0" width="63" height="63"></rect>
                <rect id="Shape" fill="#FFC641" x="62.7224199" y="62" width="63" height="63"></rect>
                <rect id="Shape" fill="#06818E" x="186.72242" y="0" width="63" height="63"></rect>
                <rect id="Shape" fill="#06818E" x="124.72242" y="0" width="63" height="63"></rect>
                <rect id="Shape" fill="#FFC641" x="62.7224199" y="187" width="63" height="63"></rect>
                <rect id="Shape" fill="#111747" x="0.722419929" y="0" width="63" height="63"></rect>
                <rect id="Shape" fill="#FFFFFF" x="62.7224199" y="124" width="63" height="63"></rect>
                <path d="M124.72242,0 L156.22242,0 C173.61939,1.10150832e-14 187.72242,14.1030304 187.72242,31.5 C187.72242,48.8969696 173.61939,63 156.22242,63 L124.72242,63 L124.72242,63 L124.72242,0 Z" id="Shape" fill="#111747"></path>
                <path d="M124.72242,187 L156.22242,187 C173.61939,187 187.72242,201.10303 187.72242,218.5 C187.72242,235.89697 173.61939,250 156.22242,250 L124.72242,250 L124.72242,250 L124.72242,187 Z" id="Shape" fill="#FE5E33"></path>
                <path d="M124.72242,124 L156.22242,124 C173.61939,124 187.72242,138.10303 187.72242,155.5 C187.72242,172.89697 173.61939,187 156.22242,187 L124.72242,187 L124.72242,187 L124.72242,124 Z" id="Shape" fill="#2CB9B0"></path>
                <path d="M32.2224199,187 C49.6193895,187 63.7224199,201.10303 63.7224199,218.5 L63.7224199,250 L63.7224199,250 L0.722419929,250 L0.722419929,218.5 C0.722419929,201.10303 14.8254503,187 32.2224199,187 Z" id="Shape" fill="#FF87A2"></path>
                <path d="M62.7224199,0 L125.72242,0 C125.72242,17.1208272 111.61939,31 94.2224199,31 C76.8254503,31 62.7224199,17.1208272 62.7224199,0 Z" id="Shape" fill="#06818E"></path>
                <path d="M156.22242,62 C173.61939,62 187.72242,76.1030304 187.72242,93.5 C187.72242,110.89697 173.61939,125 156.22242,125 L124.72242,125 L124.72242,125 L124.72242,93.5 C124.72242,76.1030304 138.82545,62 156.22242,62 Z" id="Shape" fill="#2CB9B0"></path>
                <path d="M125.72242,125 L62.7224199,125 C62.7224199,107.879173 76.8254503,94 94.2224199,94 C111.61939,94 125.72242,107.879173 125.72242,125 Z" id="Shape" fill="#06818E"></path>
                <path d="M63.7224199,62 L0.722419929,62 C0.722419929,44.8791728 14.8254503,31 32.2224199,31 C49.6193895,31 63.7224199,44.8791728 63.7224199,62 Z" id="Shape" fill="#FE5E33"></path>
                <rect id="Shape" fill="#FFFFFF" x="249.72242" y="124" width="63" height="63"></rect>
                <rect id="Shape" fill="#FE5E33" x="249.72242" y="187" width="63" height="63"></rect>
                <rect id="Shape" fill="#FFC641" x="0.722419929" y="62" width="63" height="63"></rect>
                <path d="M0.722419929,124 L63.7224199,124 L63.7224199,155.5 C63.7224199,172.89697 49.6193895,187 32.2224199,187 C14.8254503,187 0.722419929,172.89697 0.722419929,155.5 L0.722419929,124 L0.722419929,124 Z" id="Shape" fill="#FFC641"></path>
                <rect id="Shape" fill="#FE5E33" x="249.72242" y="0" width="63" height="63"></rect>
                <rect id="Shape" fill="#2CB9B0" x="312.72242" y="0" width="63" height="63"></rect>
                <rect id="Shape" fill="#FE5E33" x="249.72242" y="62" width="63" height="63"></rect>
                <path d="M249.72242,62 L281.22242,62 C298.61939,62 312.72242,76.1030304 312.72242,93.5 C312.72242,110.89697 298.61939,125 281.22242,125 C263.82545,125 249.72242,110.89697 249.72242,93.5 L249.72242,62 L249.72242,62 Z" id="Shape" fill="#111747"></path>
                <path d="M249.72242,63 C232.601593,63 218.72242,48.8969696 218.72242,31.5 C218.72242,14.1030304 232.601593,0 249.72242,0 L249.72242,63 Z" id="Shape" fill="#2CB9B0"></path>
                <path d="M249.72242,63 L249.72242,0 C266.843247,0 280.72242,14.1030304 280.72242,31.5 C280.72242,48.8969696 266.843247,63 249.72242,63 Z" id="Shape" fill="#2CB9B0"></path>
                <path d="M312.72242,124 L344.22242,124 C361.61939,124 375.72242,138.10303 375.72242,155.5 C375.72242,172.89697 361.61939,187 344.22242,187 L312.72242,187 L312.72242,187 L312.72242,124 Z" id="Shape" fill="#2CB9B0"></path>
                <path d="M312.72242,187 C295.601593,187 281.72242,172.89697 281.72242,155.5 C281.72242,138.10303 295.601593,124 312.72242,124 L312.72242,187 Z" id="Shape" fill="#2CB9B0"></path>
                <rect id="Shape" fill="#FFC641" x="186.72242" y="124" width="63" height="63"></rect>
                <rect id="Shape" fill="#FF87A2" x="312.72242" y="62" width="63" height="63"></rect>
                <path d="M218.22242,62 L249.72242,62 L249.72242,62 L249.72242,125 L218.22242,125 C200.82545,125 186.72242,110.89697 186.72242,93.5 C186.72242,76.1030304 200.82545,62 218.22242,62 Z" id="Shape" fill="#FF87A2"></path>
                <path d="M124.72242,0 L187.72242,0 C187.72242,17.1208272 173.61939,31 156.22242,31 C138.82545,31 124.72242,17.1208272 124.72242,0 Z" id="Shape" fill="#FE5E33"></path>
                <path d="M188.72242,0 C205.843247,0 219.72242,13.8791728 219.72242,31 C202.601593,31 188.72242,17.1208272 188.72242,0 Z" id="Shape" fill="#2CB9B0"></path>
                <path d="M312.72242,63 C312.72242,80.1208272 298.843247,94 281.72242,94 C281.72242,76.8791728 295.601593,63 312.72242,63 Z" id="Shape" fill="#FFC641"></path>
                <path d="M62.7224199,62 C62.7224199,44.8791728 76.6015927,31 93.7224199,31 C93.7224199,48.1208272 79.8432472,62 62.7224199,62 Z" id="Shape" fill="#FFFFFF"></path>
                <path d="M172.22242,183 C162.956499,177.510758 156.72242,167.25095 156.72242,155.5 C156.72242,143.74905 162.956499,133.489242 172.22242,128 C181.488341,133.489242 187.72242,143.74905 187.72242,155.5 C187.72242,167.25095 181.488341,177.510758 172.22242,183 L172.22242,183 Z" id="Shape" fill="#111747"></path>
                <rect id="Shape" fill="#111747" x="312.72242" y="0" width="63" height="63"></rect>
                <rect id="Shape" fill="#2CB9B0" x="0.722419929" y="124" width="63" height="63"></rect>
                <rect id="Shape" fill="#FE5E33" x="0.722419929" y="62" width="63" height="63"></rect>
                <path d="M344.22242,16 C352.782834,16 359.72242,22.9395864 359.72242,31.5 C359.72242,40.0604136 352.782834,47 344.22242,47 C335.662006,47 328.72242,40.0604136 328.72242,31.5 C328.72242,22.9395864 335.662006,16 344.22242,16 Z" id="Shape" fill="#FFC641"></path>
                <path d="M32.2224199,16 C40.7828336,16 47.7224199,22.9395864 47.7224199,31.5 C47.7224199,40.0604136 40.7828336,47 32.2224199,47 C23.6620063,47 16.7224199,40.0604136 16.7224199,31.5 C16.7224199,22.9395864 23.6620063,16 32.2224199,16 Z" id="Shape" fill="#FFC641"></path>
                <path d="M94.2224199,140 C102.782834,140 109.72242,146.939586 109.72242,155.5 C109.72242,164.060414 102.782834,171 94.2224199,171 C85.6620063,171 78.7224199,164.060414 78.7224199,155.5 C78.7224199,146.939586 85.6620063,140 94.2224199,140 Z" id="Shape" fill="#FE5E33"></path>
                <path d="M156.22242,78 C164.782834,78 171.72242,84.9395864 171.72242,93.5 C171.72242,102.060414 164.782834,109 156.22242,109 C147.662006,109 140.72242,102.060414 140.72242,93.5 C140.72242,84.9395864 147.662006,78 156.22242,78 Z" id="Shape" fill="#FE5E33"></path>
                <path d="M218.22242,78 C226.782834,78 233.72242,84.9395864 233.72242,93.5 C233.72242,102.060414 226.782834,109 218.22242,109 C209.662006,109 202.72242,102.060414 202.72242,93.5 C202.72242,84.9395864 209.662006,78 218.22242,78 Z" id="Shape" fill="#2CB9B0"></path>
                <path d="M344.22242,140 C352.782834,140 359.72242,146.939586 359.72242,155.5 C359.72242,164.060414 352.782834,171 344.22242,171 C335.662006,171 328.72242,164.060414 328.72242,155.5 C328.72242,146.939586 335.662006,140 344.22242,140 Z" id="Shape" fill="#FE5E33"></path>
                <path d="M218.72242,218 C218.72242,200.879173 232.601593,187 249.72242,187 C249.72242,204.120827 235.843247,218 218.72242,218 Z" id="Shape" fill="#111747"></path>
                <path d="M375.72242,187 C375.72242,204.39697 361.61939,218.5 344.22242,218.5 C344.22242,201.10303 358.32545,187 375.72242,187 Z M312.72242,250 C312.72242,232.60303 326.82545,218.5 344.22242,218.5 C344.22242,235.89697 330.11939,250 312.72242,250 Z M344.22242,218.5 C326.82545,218.5 312.72242,204.39697 312.72242,187 C330.11939,187 344.22242,201.10303 344.22242,218.5 Z M344.22242,218.5 C361.61939,218.5 375.72242,232.60303 375.72242,250 C358.32545,250 344.22242,235.89697 344.22242,218.5 Z" id="Shape" fill="#2CB9B0"></path>
                <path d="M156.72242,94 C156.72242,111.120827 142.843247,125 125.72242,125 C125.72242,107.879173 139.601593,94 156.72242,94 Z" id="Shape" fill="#06818E"></path>
                <path d="M63.7224199,94 C63.7224199,111.39697 49.6193895,125.5 32.2224199,125.5 C32.2224199,108.10303 46.3254503,94 63.7224199,94 Z M0.722419929,157 C0.722419929,139.60303 14.8254503,125.5 32.2224199,125.5 C32.2224199,142.89697 18.1193895,157 0.722419929,157 Z M32.2224199,125.5 C14.8254503,125.5 0.722419929,111.39697 0.722419929,94 C18.1193895,94 32.2224199,108.10303 32.2224199,125.5 Z M32.2224199,125.5 C49.6193895,125.5 63.7224199,139.60303 63.7224199,157 C46.3254503,157 32.2224199,142.89697 32.2224199,125.5 Z" id="Shape" fill="#2CB9B0"></path>
            </g>
            <path d="M60,-10 L315,-10 C348.137085,-10 375,16.862915 375,50 L375,371.790703 C375,415.973483 339.18278,451.790703 295,451.790703 L80,451.790703 C35.81722,451.790703 5.34524576e-14,487.607923 0,531.790703 L0,624 L0,624 L0,50 C-4.05812251e-15,16.862915 26.862915,-10 60,-10 Z" id="bg" fill="#FFFFFF" fill-rule="nonzero" transform="translate(187.500000, 307.000000) scale(1, -1) translate(-187.500000, -307.000000) "></path>
        </g>
    </g>
</svg>
