<?xml version="1.0" encoding="UTF-8"?>
<svg width="44px" height="44px" viewBox="0 0 44 44" version="1.1" xmlns="http://www.w3.org/2000/svg" xmlns:xlink="http://www.w3.org/1999/xlink">
    <title>Icons/icon-apple</title>
    <g id="UI-KIT" stroke="none" stroke-width="1" fill="none" fill-rule="evenodd">
        <g id="Login" transform="translate(-225.000000, -674.000000)">
            <rect fill="#0C0D34" x="0" y="0" width="375" height="812"></rect>
            <g id="Group" transform="translate(225.000000, 674.000000)" fill-rule="nonzero">
                <g>
                    <rect id="bg" fill="#F6F6F6" x="0" y="0" width="44" height="44" rx="22"></rect>
                    <g id="icon-apple" transform="translate(13.000000, 11.000000)" fill="#000000">
                        <path d="M16.9107176,15.5860726 C16.6006037,16.2848168 16.2335297,16.9280068 15.8082302,17.5193473 C15.2285061,18.3254946 14.7538417,18.8835028 14.3880334,19.1933704 C13.8209677,19.7019968 13.213397,19.9624825 12.5627898,19.9772973 C12.0957201,19.9772973 11.5324512,19.847671 10.8767813,19.5847173 C10.2189597,19.322995 9.61442669,19.1933704 9.06166383,19.1933704 C8.48194015,19.1933704 7.86019262,19.322995 7.19515603,19.5847173 C6.52910605,19.847671 5.99254552,19.9847046 5.58230853,19.9982845 C4.95840934,20.0242094 4.3365359,19.7563163 3.71580073,19.1933704 C3.3196144,18.8563431 2.82406467,18.2785824 2.2304171,17.4600885 C1.59348074,16.5860422 1.06983074,15.5724927 0.659593922,14.4169722 C0.220244393,13.1688618 0,11.9602565 0,10.790169 C0,9.44983931 0.296950203,8.29382492 0.891736561,7.32508872 C1.35918625,6.54696461 1.98106014,5.93315588 2.75938316,5.482552 C3.53770688,5.0319488 4.378686,4.80232618 5.2843463,4.78763494 C5.77989568,4.78763494 6.42974368,4.9371366 7.23730614,5.23095494 C8.0425905,5.52576082 8.55965859,5.67526248 8.78635806,5.67526248 C8.95584491,5.67526248 9.5302524,5.50045264 10.5040111,5.15194517 C11.4248608,4.82874503 12.2020447,4.69492147 12.8387281,4.74763587 C14.563976,4.88343433 15.8601268,5.54674772 16.7221178,6.74177314 C15.1791416,7.6535975 14.4158807,8.93071912 14.4310698,10.5690644 C14.4449934,11.8451983 14.9196578,12.9071412 15.8525319,13.7503261 C16.2752996,14.1416716 16.747433,14.4441317 17.2727273,14.6589402 C17.1588094,14.9811525 17.038561,15.2897852 16.9107176,15.5860726 Z M12.9539139,0.400113874 C12.9539139,1.40034222 12.5792447,2.33425259 11.8324396,3.19867035 C10.931209,4.22629397 9.8411265,4.82010283 8.65902148,4.72640216 C8.64395897,4.60640562 8.63522502,4.4801134 8.63522502,4.34740153 C8.63522502,3.38718338 9.06381566,2.35956026 9.82492486,1.51933877 C10.204909,1.09391991 10.688181,0.740189892 11.2742337,0.458012749 C11.8590204,0.180045858 12.4121631,0.0263241803 12.932395,0 C12.9475853,0.133714905 12.9539139,0.267438225 12.9539139,0.400100903 L12.9539139,0.400113874 Z" id="path4"></path>
                    </g>
                </g>
            </g>
        </g>
    </g>
</svg>
