<svg id="Layer_1" enable-background="new 0 0 512 512" height="512" viewBox="0 0 512 512" width="512" xmlns="http://www.w3.org/2000/svg"><g><g><g><g><g><g><g><g id="XMLID_990_"><g id="XMLID_991_"><g id="XMLID_992_"><g id="XMLID_993_"><g id="XMLID_994_"><g id="XMLID_995_"><g id="XMLID_996_"><g id="XMLID_1017_"><g id="XMLID_1018_"><g id="XMLID_1019_"><g id="XMLID_1020_"><g id="XMLID_1021_"><g id="XMLID_1022_"><g id="XMLID_1023_"><g id="XMLID_1024_"><circle cx="256" cy="256" fill="#ace233" r="256"/></g></g></g></g></g></g></g></g></g></g></g></g></g></g></g></g></g></g></g></g></g><path d="m168.857 496.771c27.036 9.787 56.188 15.163 86.595 15.228 141.385.303 256.245-114.067 256.547-255.451.037-17.382-1.668-34.359-4.934-50.776l-29.49-29.49-42.203 50.373-153.75-152.766-42.084 42.043 27.514 28.257-52.804 57.309c-12.377-5.245-89.367-4.915-94.39 11.329l-37.527-36.546-38.734 38.734 35.999 36.947-21.218 134.33z" fill="#70be6b"/><g><g><path d="m351.449 170.436c-60.386-6.69-95.449 52.114-95.449 52.114s-35.063-58.804-95.449-52.115-49.26 69.874-49.26 69.874l34.301 43.891h220.817l34.301-43.891c0 .001 11.126-63.183-49.261-69.873z" fill="#ff4a4a"/><path d="m400.71 240.31-34.3 43.89h-110.41v-61.65s35.06-58.8 95.45-52.11 49.26 69.87 49.26 69.87z" fill="#c1126b"/><path d="m362.91 260.569-106.91-164.223-106.91 163.989-90.712-67.049v134.602l197.622 29.202 197.622-29.202v-134.368z" fill="#ffef4a"/></g><g fill="#ffd321"><ellipse cx="256" cy="90.339" rx="30.453" ry="30.453" transform="matrix(.924 -.383 .383 .924 -15.084 104.844)"/><circle cx="58.378" cy="191.063" r="28.147"/><path d="m58.378 327.888h395.244v58.404h-395.244z"/></g></g><path d="m453.62 193.52v134.37l-197.62 29.2v-260.74l13.77 21.15 93.14 143.07z" fill="#ffd321"/><g fill="#ff936b"><circle cx="453.622" cy="191.063" r="28.147"/><path d="m286.45 90.34c0 11.86-6.78 22.14-16.68 27.16-4.13 2.11-8.81 3.29-13.77 3.29v-60.9c16.82 0 30.45 13.63 30.45 30.45z"/><path d="m256 327.89h197.62v58.4h-197.62z"/></g></g></svg>