<?xml version="1.0" encoding="UTF-8"?>
<svg width="44px" height="44px" viewBox="0 0 44 44" version="1.1" xmlns="http://www.w3.org/2000/svg" xmlns:xlink="http://www.w3.org/1999/xlink">
    <title>Icons/icon-google</title>
    <g id="UI-KIT" stroke="none" stroke-width="1" fill="none" fill-rule="evenodd">
        <g id="Login" transform="translate(-165.000000, -674.000000)">
            <rect fill="#0C0D34" x="0" y="0" width="375" height="812"></rect>
            <g id="Group" transform="translate(165.000000, 674.000000)" fill-rule="nonzero">
                <g>
                    <rect id="bg" fill="#F6F6F6" x="0" y="0" width="44" height="44" rx="22"></rect>
                    <g id="icon-google" transform="translate(12.000000, 12.000000)">
                        <path d="M19.766537,10.2092639 C19.766537,9.52745437 19.7111632,8.84195938 19.5930324,8.17120623 L10.1167315,8.17120623 L10.1167315,12.0335651 L15.5433627,12.0335651 C15.318176,13.2792495 14.5946252,14.3812011 13.53514,15.0814379 L13.53514,17.5875486 L16.7726608,17.5875486 C18.6738275,15.8406421 19.766537,13.2608222 19.766537,10.2092639 Z" id="Path" fill="#4285F4"></path>
                        <path d="M10.0699948,20 C12.7803926,20 15.0661368,19.1134064 16.7315175,17.5830209 L13.4930722,15.0814291 C12.592068,15.6921118 11.4288864,16.0379201 10.0736875,16.0379201 C7.45191301,16.0379201 5.22894368,14.2757694 4.43133343,11.9066148 L1.08949416,11.9066148 L1.08949416,14.4854616 C2.79549388,17.8662894 6.27026818,20 10.0699948,20 Z" id="Path" fill="#34A853"></path>
                        <path d="M4.43579767,11.9632929 C4.01210187,10.7148452 4.01210187,9.36297579 4.43579767,8.11452807 L4.43579767,5.52529183 L1.07596433,5.52529183 C-0.358654776,8.36569507 -0.358654776,11.7121259 1.07596433,14.5525292 L4.43579767,11.9632929 Z" id="Path" fill="#FBBC04"></path>
                        <path d="M10.0785987,3.96062418 C11.5127157,3.93856318 12.8987824,4.47538089 13.9374083,5.46077231 L13.9374083,5.46077231 L16.8093385,2.60387256 C14.990819,0.905175407 12.5772149,-0.0287403427 10.0785987,0.000674326605 C6.27523167,0.000674326605 2.79712833,2.13323785 1.08949416,5.51592482 L4.43083893,8.09338521 C5.22551717,5.7218275 7.45431241,3.96062418 10.0785987,3.96062418 Z" id="Path" fill="#EA4335"></path>
                    </g>
                </g>
            </g>
        </g>
    </g>
</svg>
