<?xml version="1.0" encoding="UTF-8"?>
<svg width="375px" height="502px" viewBox="0 0 375 502" version="1.1" xmlns="http://www.w3.org/2000/svg" xmlns:xlink="http://www.w3.org/1999/xlink">
    <title>Group 2</title>
    <g id="UI-KIT" stroke="none" stroke-width="1" fill="none" fill-rule="evenodd">
        <g id="Group" transform="translate(187.500000, 251.000000) scale(-1, -1) rotate(90.000000) translate(-187.500000, -251.000000) translate(-63.500000, 63.500000)">
            <rect id="Shape" fill="#BFEAF5" x="1.72241993" y="0" width="500" height="375"></rect>
            <rect id="Shape" fill="#111747" x="250.72242" y="0" width="63" height="63"></rect>
            <rect id="Shape" fill="#111747" x="188.72242" y="0" width="63" height="63"></rect>
            <path d="M95.2224199,125 L126.72242,125 L126.72242,125 L126.72242,188 L95.2224199,188 C77.8254503,188 63.7224199,173.89697 63.7224199,156.5 C63.7224199,139.10303 77.8254503,125 95.2224199,125 Z" id="Shape" fill="#111747"></path>
            <rect id="Shape" fill="#111747" x="188.72242" y="125" width="63" height="63"></rect>
            <rect id="Shape" fill="#FFC641" x="188.72242" y="187" width="63" height="63"></rect>
            <rect id="Shape" fill="#06818E" x="312.72242" y="125" width="63" height="63"></rect>
            <rect id="Shape" fill="#06818E" x="250.72242" y="125" width="63" height="63"></rect>
            <rect id="Shape" fill="#111747" x="126.72242" y="125" width="63" height="63"></rect>
            <rect id="Shape" fill="#FFFFFF" x="188.72242" y="249" width="63" height="63"></rect>
            <rect id="Shape" fill="#2CB9B0" x="188.72242" y="63" width="63" height="63"></rect>
            <path d="M250.72242,125 L282.22242,125 C299.61939,125 313.72242,139.10303 313.72242,156.5 C313.72242,173.89697 299.61939,188 282.22242,188 L250.72242,188 L250.72242,188 L250.72242,125 Z" id="Shape" fill="#111747"></path>
            <path d="M250.72242,312 L282.22242,312 C299.61939,312 313.72242,326.10303 313.72242,343.5 C313.72242,360.89697 299.61939,375 282.22242,375 L250.72242,375 L250.72242,375 L250.72242,312 Z" id="Shape" fill="#FE5E33" transform="translate(282.222420, 343.500000) rotate(90.000000) translate(-282.222420, -343.500000) "></path>
            <path d="M250.72242,249 L282.22242,249 C299.61939,249 313.72242,263.10303 313.72242,280.5 C313.72242,297.89697 299.61939,312 282.22242,312 L250.72242,312 L250.72242,312 L250.72242,249 Z" id="Shape" fill="#2CB9B0"></path>
            <path d="M220.22242,0 C237.61939,-3.19577147e-15 251.72242,14.1030304 251.72242,31.5 L251.72242,63 L251.72242,63 L188.72242,63 L188.72242,31.5 C188.72242,14.1030304 202.82545,3.19577147e-15 220.22242,0 Z" id="Shape" fill="#2CB9B0"></path>
            <path d="M220.5,312 C237.89697,312 252,326.10303 252,343.5 L252,375 L252,375 L189,375 L189,343.5 C189,326.10303 203.10303,312 220.5,312 Z" id="Shape-Copy" fill="#2CB9B0"></path>
            <path d="M407.22242,63 C424.61939,63 438.72242,77.1030304 438.72242,94.5 L438.72242,126 L438.72242,126 L375.72242,126 L375.72242,94.5 C375.72242,77.1030304 389.82545,63 407.22242,63 Z" id="Shape" fill="#FE5E33"></path>
            <path d="M282.22242,63 C299.61939,63 313.72242,77.1030304 313.72242,94.5 L313.72242,126 L313.72242,126 L250.72242,126 L250.72242,94.5 C250.72242,77.1030304 264.82545,63 282.22242,63 Z" id="Shape" fill="#FE5E33"></path>
            <path d="M158.22242,63 C175.61939,63 189.72242,77.1030304 189.72242,94.5 L189.72242,126 L189.72242,126 L158.22242,126 C140.82545,126 126.72242,111.89697 126.72242,94.5 C126.72242,77.1030304 140.82545,63 158.22242,63 Z" id="Shape" fill="#FF87A2"></path>
            <path d="M158.22242,312 C175.61939,312 189.72242,326.10303 189.72242,343.5 L189.72242,375 L189.72242,375 L126.72242,375 L126.72242,343.5 C126.72242,326.10303 140.82545,312 158.22242,312 Z" id="Shape" fill="#FF87A2" transform="translate(158.222420, 343.500000) rotate(90.000000) translate(-158.222420, -343.500000) "></path>
            <rect id="Shape" fill="#2CB9B0" x="250" y="0" width="63" height="63"></rect>
            <path d="M188.72242,125 L251.72242,125 C251.72242,142.120827 237.61939,156 220.22242,156 C202.82545,156 188.72242,142.120827 188.72242,125 Z" id="Shape" fill="#06818E"></path>
            <path d="M312.72242,63 L375.72242,63 C375.72242,80.1208272 361.61939,94 344.22242,94 C326.82545,94 312.72242,80.1208272 312.72242,63 Z" id="Shape" fill="#06818E"></path>
            <path d="M375.72242,93 L438.72242,93 C438.72242,110.120827 424.61939,124 407.22242,124 C389.82545,124 375.72242,110.120827 375.72242,93 Z" id="Shape" fill="#FFC641"></path>
            <path d="M282.22242,187 C299.61939,187 313.72242,201.10303 313.72242,218.5 C313.72242,235.89697 299.61939,250 282.22242,250 L250.72242,250 L250.72242,250 L250.72242,218.5 C250.72242,201.10303 264.82545,187 282.22242,187 Z" id="Shape" fill="#2CB9B0"></path>
            <path d="M95.2224199,187 L126.72242,187 L126.72242,187 L126.72242,218.5 C126.72242,235.89697 112.61939,250 95.2224199,250 C77.8254503,250 63.7224199,235.89697 63.7224199,218.5 C63.7224199,201.10303 77.8254503,187 95.2224199,187 Z" id="Shape" fill="#2CB9B0"></path>
            <path d="M251.72242,250 L188.72242,250 C188.72242,232.879173 202.82545,219 220.22242,219 C237.61939,219 251.72242,232.879173 251.72242,250 Z" id="Shape" fill="#06818E"></path>
            <path d="M501.72242,125 L438.72242,125 C438.72242,107.879173 452.82545,94 470.22242,94 C487.61939,94 501.72242,107.879173 501.72242,125 Z" id="Shape" fill="#2CB9B0"></path>
            <path d="M189.72242,187 L126.72242,187 C126.72242,169.879173 140.82545,156 158.22242,156 C175.61939,156 189.72242,169.879173 189.72242,187 Z" id="Shape" fill="#FE5E33"></path>
            <rect id="Shape" fill="#FFFFFF" x="375.72242" y="249" width="63" height="63"></rect>
            <rect id="Shape" fill="#FFC641" x="126.72242" y="187" width="63" height="63"></rect>
            <path d="M126.72242,249 L189.72242,249 L189.72242,280.5 C189.72242,297.89697 175.61939,312 158.22242,312 C140.82545,312 126.72242,297.89697 126.72242,280.5 L126.72242,249 L126.72242,249 Z" id="Shape" fill="#FFC641"></path>
            <path d="M251,1 C251,18.3969696 236.89697,32.5 219.5,32.5 C219.5,15.1030304 233.60303,1 251,1 Z M188,64 C188,46.6030304 202.10303,32.5 219.5,32.5 C219.5,49.8969696 205.39697,64 188,64 Z M219.5,32.5 C202.10303,32.5 188,18.3969696 188,1 C205.39697,1 219.5,15.1030304 219.5,32.5 Z M219.5,32.5 C236.89697,32.5 251,46.6030304 251,64 C233.60303,64 219.5,49.8969696 219.5,32.5 Z" id="Shape" fill="#06818E"></path>
            <path d="M252,312 C252,329.39697 237.89697,343.5 220.5,343.5 C220.5,326.10303 234.60303,312 252,312 Z M189,375 C189,357.60303 203.10303,343.5 220.5,343.5 C220.5,360.89697 206.39697,375 189,375 Z M220.5,343.5 C203.10303,343.5 189,329.39697 189,312 C206.39697,312 220.5,326.10303 220.5,343.5 Z M220.5,343.5 C237.89697,343.5 252,357.60303 252,375 C234.60303,375 220.5,360.89697 220.5,343.5 Z" id="Shape-Copy-2" fill="#06818E"></path>
            <rect id="Shape" fill="#FE5E33" x="375.72242" y="125" width="63" height="63"></rect>
            <rect id="Shape" fill="#111747" x="0.722419929" y="312" width="63" height="63"></rect>
            <rect id="Shape" fill="#FE5E33" x="375.72242" y="0" width="63" height="63"></rect>
            <rect id="Shape" fill="#2CB9B0" x="0.722419929" y="63" width="63" height="63"></rect>
            <rect id="Shape" fill="#2CB9B0" x="438.72242" y="125" width="63" height="63"></rect>
            <rect id="Shape" fill="#06818E" x="312.72242" y="0" width="63" height="63"></rect>
            <rect id="Shape" fill="#FE5E33" x="0.722419929" y="187" width="63" height="63"></rect>
            <rect id="Shape" fill="#FE5E33" x="375.72242" y="187" width="63" height="63"></rect>
            <path d="M375.72242,187 L407.22242,187 C424.61939,187 438.72242,201.10303 438.72242,218.5 C438.72242,235.89697 424.61939,250 407.22242,250 C389.82545,250 375.72242,235.89697 375.72242,218.5 L375.72242,187 L375.72242,187 Z" id="Shape" fill="#111747"></path>
            <path d="M375.72242,188 C358.601593,188 344.72242,173.89697 344.72242,156.5 C344.72242,139.10303 358.601593,125 375.72242,125 L375.72242,188 Z" id="Shape" fill="#2CB9B0"></path>
            <path d="M375.72242,188 L375.72242,125 C392.843247,125 406.72242,139.10303 406.72242,156.5 C406.72242,173.89697 392.843247,188 375.72242,188 Z" id="Shape" fill="#2CB9B0"></path>
            <path d="M438.72242,249 L470.22242,249 C487.61939,249 501.72242,263.10303 501.72242,280.5 C501.72242,297.89697 487.61939,312 470.22242,312 L438.72242,312 L438.72242,312 L438.72242,249 Z" id="Shape" fill="#2CB9B0"></path>
            <path d="M438.72242,312 C421.601593,312 407.72242,297.89697 407.72242,280.5 C407.72242,263.10303 421.601593,249 438.72242,249 L438.72242,312 Z" id="Shape" fill="#2CB9B0"></path>
            <rect id="Shape" fill="#FF87A2" x="0.722419929" y="125" width="63" height="63"></rect>
            <rect id="Shape" fill="#FFC641" x="312.72242" y="249" width="63" height="63"></rect>
            <rect id="Shape" fill="#FF87A2" x="438.72242" y="187" width="63" height="63"></rect>
            <path d="M344.22242,187 L375.72242,187 L375.72242,187 L375.72242,250 L344.22242,250 C326.82545,250 312.72242,235.89697 312.72242,218.5 C312.72242,201.10303 326.82545,187 344.22242,187 Z" id="Shape" fill="#FF87A2"></path>
            <path d="M63.7224199,125 L126.72242,125 C126.72242,142.120827 112.61939,156 95.2224199,156 C77.8254503,156 63.7224199,142.120827 63.7224199,125 Z" id="Shape" fill="#FF87A2"></path>
            <path d="M250.72242,125 L313.72242,125 C313.72242,142.120827 299.61939,156 282.22242,156 C264.82545,156 250.72242,142.120827 250.72242,125 Z" id="Shape" fill="#FE5E33"></path>
            <rect id="Shape" fill="#FF87A2" x="63.7224199" y="63" width="63" height="63"></rect>
            <path d="M126.72242,63 L63.7224199,63 C63.7224199,45.8791728 77.8254503,32 95.2224199,32 C112.61939,32 126.72242,45.8791728 126.72242,63 Z" id="Shape" fill="#FF87A2"></path>
            <path d="M126.72242,0 C126.72242,17.1208272 112.843247,31 95.7224199,31 C95.7224199,13.8791728 109.601593,0 126.72242,0 Z" id="Shape" fill="#06818E"></path>
            <path d="M63.7224199,63 C63.7224199,45.8791728 77.6015927,32 94.7224199,32 C94.7224199,49.1208272 80.8432472,63 63.7224199,63 Z" id="Shape" fill="#111747"></path>
            <path d="M111.22242,122 C101.956499,116.510758 95.7224199,106.25095 95.7224199,94.5 C95.7224199,82.7490497 101.956499,72.4892424 111.22242,67 C120.488341,72.4892424 126.72242,82.7490497 126.72242,94.5 C126.72242,106.25095 120.488341,116.510758 111.22242,122 L111.22242,122 Z" id="Shape" fill="#FFFFFF"></path>
            <path d="M250.72242,63 C250.72242,80.1208272 236.843247,94 219.72242,94 C219.72242,76.8791728 233.601593,63 250.72242,63 Z" id="Shape" fill="#111747"></path>
            <path d="M314.72242,125 C331.843247,125 345.72242,138.879173 345.72242,156 C328.601593,156 314.72242,142.120827 314.72242,125 Z" id="Shape" fill="#2CB9B0"></path>
            <path d="M438.72242,188 C438.72242,205.120827 424.843247,219 407.72242,219 C407.72242,201.879173 421.601593,188 438.72242,188 Z" id="Shape" fill="#FFC641"></path>
            <path d="M63.7224199,63 C63.7224199,80.1208272 49.8432472,94 32.7224199,94 C32.7224199,76.8791728 46.6015927,63 63.7224199,63 Z" id="Shape" fill="#FFC641"></path>
            <path d="M63.7224199,250 L63.7224199,187 C80.8432472,187 94.7224199,201.10303 94.7224199,218.5 C94.7224199,235.89697 80.8432472,250 63.7224199,250 Z" id="Shape" fill="#FE5E33"></path>
            <path d="M0.722419929,250 C0.722419929,232.879173 14.6015927,219 31.7224199,219 C31.7224199,236.120827 17.8432472,250 0.722419929,250 Z" id="Shape" fill="#2CB9B0"></path>
            <rect id="Shape" fill="#06818E" x="0.722419929" y="0" width="63" height="63"></rect>
            <path d="M371.72242,78.5 C366.233177,87.7659212 355.97337,94 344.22242,94 C332.47147,94 322.211662,87.7659212 316.72242,78.5 C322.211662,69.2340788 332.47147,63 344.22242,63 C355.97337,63 366.233177,69.2340788 371.72242,78.5 L371.72242,78.5 Z" id="Shape" fill="#2CB9B0"></path>
            <path d="M0.722419929,124 C0.722419929,106.879173 14.6015927,93 31.7224199,93 C31.7224199,110.120827 17.8432472,124 0.722419929,124 Z" id="Shape" fill="#06818E"></path>
            <path d="M188.72242,187 C188.72242,169.879173 202.601593,156 219.72242,156 C219.72242,173.120827 205.843247,187 188.72242,187 Z" id="Shape" fill="#FFFFFF"></path>
            <path d="M47.9724199,308 C38.5570483,302.510758 32.2224199,292.25095 32.2224199,280.5 C32.2224199,268.74905 38.5570483,258.489242 47.9724199,253 C57.3877915,258.489242 63.7224199,268.74905 63.7224199,280.5 C63.7224199,292.25095 57.3877915,302.510758 47.9724199,308 L47.9724199,308 Z M16.4724199,308 C7.05704835,302.510758 0.722419929,292.25095 0.722419929,280.5 C0.722419929,268.74905 7.05704835,258.489242 16.4724199,253 C25.8877915,258.489242 32.2224199,268.74905 32.2224199,280.5 C32.2224199,292.25095 25.8877915,302.510758 16.4724199,308 L16.4724199,308 Z" id="Shape" fill="#2CB9B0"></path>
            <path d="M298.22242,308 C288.956499,302.510758 282.72242,292.25095 282.72242,280.5 C282.72242,268.74905 288.956499,258.489242 298.22242,253 C307.488341,258.489242 313.72242,268.74905 313.72242,280.5 C313.72242,292.25095 307.488341,302.510758 298.22242,308 L298.22242,308 Z" id="Shape" fill="#111747"></path>
            <rect id="Shape" fill="#111747" x="438.72242" y="125" width="63" height="63"></rect>
            <rect id="Shape" fill="#2CB9B0" x="126.72242" y="249" width="63" height="63"></rect>
            <rect id="Shape" fill="#FFFFFF" x="94.7224199" y="219" width="63" height="63"></rect>
            <rect id="Shape" fill="#FE5E33" x="126.72242" y="187" width="63" height="63"></rect>
            <path d="M470.22242,141 C478.782834,141 485.72242,147.939586 485.72242,156.5 C485.72242,165.060414 478.782834,172 470.22242,172 C461.662006,172 454.72242,165.060414 454.72242,156.5 C454.72242,147.939586 461.662006,141 470.22242,141 Z" id="Shape" fill="#FFC641"></path>
            <path d="M158.22242,141 C166.782834,141 173.72242,147.939586 173.72242,156.5 C173.72242,165.060414 166.782834,172 158.22242,172 C149.662006,172 142.72242,165.060414 142.72242,156.5 C142.72242,147.939586 149.662006,141 158.22242,141 Z" id="Shape" fill="#FFC641"></path>
            <path d="M32.2224199,141 C40.7828336,141 47.7224199,147.939586 47.7224199,156.5 C47.7224199,165.060414 40.7828336,172 32.2224199,172 C23.6620063,172 16.7224199,165.060414 16.7224199,156.5 C16.7224199,147.939586 23.6620063,141 32.2224199,141 Z" id="Shape" fill="#111747"></path>
            <path d="M220.22242,265 C228.782834,265 235.72242,271.939586 235.72242,280.5 C235.72242,289.060414 228.782834,296 220.22242,296 C211.662006,296 204.72242,289.060414 204.72242,280.5 C204.72242,271.939586 211.662006,265 220.22242,265 Z" id="Shape" fill="#FE5E33"></path>
            <path d="M282.22242,203 C290.782834,203 297.72242,209.939586 297.72242,218.5 C297.72242,227.060414 290.782834,234 282.22242,234 C273.662006,234 266.72242,227.060414 266.72242,218.5 C266.72242,209.939586 273.662006,203 282.22242,203 Z" id="Shape" fill="#FE5E33"></path>
            <path d="M95.2224199,265 C103.782834,265 110.72242,271.939586 110.72242,280.5 C110.72242,289.060414 103.782834,296 95.2224199,296 C86.6620063,296 79.7224199,289.060414 79.7224199,280.5 C79.7224199,271.939586 86.6620063,265 95.2224199,265 Z" id="Shape" fill="#2CB9B0"></path>
            <path d="M344.22242,203 C352.782834,203 359.72242,209.939586 359.72242,218.5 C359.72242,227.060414 352.782834,234 344.22242,234 C335.662006,234 328.72242,227.060414 328.72242,218.5 C328.72242,209.939586 335.662006,203 344.22242,203 Z" id="Shape" fill="#2CB9B0"></path>
            <path d="M32.2224199,265 C40.7828336,265 47.7224199,271.939586 47.7224199,280.5 C47.7224199,289.060414 40.7828336,296 32.2224199,296 C23.6620063,296 16.7224199,289.060414 16.7224199,280.5 C16.7224199,271.939586 23.6620063,265 32.2224199,265 Z" id="Shape" fill="#FE5E33"></path>
            <path d="M282.22242,79 C290.782834,79 297.72242,85.9395864 297.72242,94.5 C297.72242,103.060414 290.782834,110 282.22242,110 C273.662006,110 266.72242,103.060414 266.72242,94.5 C266.72242,85.9395864 273.662006,79 282.22242,79 Z" id="Shape" fill="#FFC641"></path>
            <path d="M95.2224199,203 C103.782834,203 110.72242,209.939586 110.72242,218.5 C110.72242,227.060414 103.782834,234 95.2224199,234 C86.6620063,234 79.7224199,227.060414 79.7224199,218.5 C79.7224199,209.939586 86.6620063,203 95.2224199,203 Z" id="Shape" fill="#111747"></path>
            <path d="M220.22242,109 C228.782834,109 235.72242,115.939586 235.72242,124.5 C235.72242,133.060414 228.782834,140 220.22242,140 C211.662006,140 204.72242,133.060414 204.72242,124.5 C204.72242,115.939586 211.662006,109 220.22242,109 Z" id="Shape" fill="#FE5E33"></path>
            <path d="M470.22242,265 C478.782834,265 485.72242,271.939586 485.72242,280.5 C485.72242,289.060414 478.782834,296 470.22242,296 C461.662006,296 454.72242,289.060414 454.72242,280.5 C454.72242,271.939586 461.662006,265 470.22242,265 Z" id="Shape" fill="#FE5E33"></path>
            <path d="M438.72242,31 C438.72242,48.3969696 424.61939,62.5 407.22242,62.5 C407.22242,45.1030304 421.32545,31 438.72242,31 Z M375.72242,94 C375.72242,76.6030304 389.82545,62.5 407.22242,62.5 C407.22242,79.8969696 393.11939,94 375.72242,94 Z M407.22242,62.5 C389.82545,62.5 375.72242,48.3969696 375.72242,31 C393.11939,31 407.22242,45.1030304 407.22242,62.5 Z M407.22242,62.5 C424.61939,62.5 438.72242,76.6030304 438.72242,94 C421.32545,94 407.22242,79.8969696 407.22242,62.5 Z" id="Shape" fill="#111747"></path>
            <path d="M344.72242,343 C344.72242,325.879173 358.601593,312 375.72242,312 C375.72242,329.120827 361.843247,343 344.72242,343 Z" id="Shape" fill="#111747"></path>
            <path d="M126.72242,0 L189.72242,0 L189.72242,31.5 C189.72242,48.8969696 175.61939,63 158.22242,63 C140.82545,63 126.72242,48.8969696 126.72242,31.5 L126.72242,0 L126.72242,0 Z" id="Shape" fill="#06818E"></path>
            <path d="M156.72242,31 C156.72242,13.8791728 170.601593,0 187.72242,0 C187.72242,17.1208272 173.843247,31 156.72242,31 Z" id="Shape" fill="#FE5E33"></path>
            <rect id="Shape" fill="#2CB9B0" x="63.7224199" y="312" width="63" height="63"></rect>
            <path d="M126.72242,312 L63.7224199,312 C63.7224199,294.879173 77.8254503,281 95.2224199,281 C112.61939,281 126.72242,294.879173 126.72242,312 Z" id="Shape" fill="#FE5E33"></path>
            <path d="M470.22242,0 L501.72242,0 L501.72242,0 L501.72242,63 L470.22242,63 C452.82545,63 438.72242,48.8969696 438.72242,31.5 C438.72242,14.1030304 452.82545,3.19577147e-15 470.22242,0 Z" id="Shape" fill="#111747"></path>
            <path d="M470.22242,16 C478.782834,16 485.72242,22.9395864 485.72242,31.5 C485.72242,40.0604136 478.782834,47 470.22242,47 C461.662006,47 454.72242,40.0604136 454.72242,31.5 C454.72242,22.9395864 461.662006,16 470.22242,16 Z" id="Shape" fill="#FFFFFF"></path>
            <path d="M32.7224199,343 C32.7224199,325.879173 46.6015927,312 63.7224199,312 C63.7224199,329.120827 49.8432472,343 32.7224199,343 Z" id="Shape" fill="#2CB9B0"></path>
            <path d="M501.72242,312 C501.72242,329.39697 487.61939,343.5 470.22242,343.5 C470.22242,326.10303 484.32545,312 501.72242,312 Z M438.72242,375 C438.72242,357.60303 452.82545,343.5 470.22242,343.5 C470.22242,360.89697 456.11939,375 438.72242,375 Z M470.22242,343.5 C452.82545,343.5 438.72242,329.39697 438.72242,312 C456.11939,312 470.22242,326.10303 470.22242,343.5 Z M470.22242,343.5 C487.61939,343.5 501.72242,357.60303 501.72242,375 C484.32545,375 470.22242,360.89697 470.22242,343.5 Z" id="Shape" fill="#2CB9B0"></path>
            <path d="M497.72242,78.5 C492.233177,87.7659212 481.97337,94 470.22242,94 C458.47147,94 448.211662,87.7659212 442.72242,78.5 C448.211662,69.2340788 458.47147,63 470.22242,63 C481.97337,63 492.233177,69.2340788 497.72242,78.5 L497.72242,78.5 Z" id="Shape" fill="#FFC641"></path>
            <path d="M282.72242,219 C282.72242,236.120827 268.843247,250 251.72242,250 C251.72242,232.879173 265.601593,219 282.72242,219 Z" id="Shape" fill="#06818E"></path>
            <path d="M63,0 C63,17.3969696 48.8969696,31.5 31.5,31.5 C31.5,14.1030304 45.6030304,0 63,0 Z M0,63 C0,45.6030304 14.1030304,31.5 31.5,31.5 C31.5,48.8969696 17.3969696,63 0,63 Z M31.5,31.5 C14.1030304,31.5 0,17.3969696 0,0 C17.3969696,0 31.5,14.1030304 31.5,31.5 Z M31.5,31.5 C48.8969696,31.5 63,45.6030304 63,63 C45.6030304,63 31.5,48.8969696 31.5,31.5 Z" id="Shape" fill="#111747"></path>
            <path d="M189.72242,219 C189.72242,236.39697 175.61939,250.5 158.22242,250.5 C158.22242,233.10303 172.32545,219 189.72242,219 Z M126.72242,282 C126.72242,264.60303 140.82545,250.5 158.22242,250.5 C158.22242,267.89697 144.11939,282 126.72242,282 Z M158.22242,250.5 C140.82545,250.5 126.72242,236.39697 126.72242,219 C144.11939,219 158.22242,233.10303 158.22242,250.5 Z M158.22242,250.5 C175.61939,250.5 189.72242,264.60303 189.72242,282 C172.32545,282 158.22242,267.89697 158.22242,250.5 Z" id="Shape" fill="#2CB9B0"></path>
        </g>
    </g>
</svg>
