<?xml version="1.0" encoding="UTF-8"?>
<svg width="36px" height="36px" viewBox="0 0 36 36" version="1.1" xmlns="http://www.w3.org/2000/svg" xmlns:xlink="http://www.w3.org/1999/xlink">
    <title>NoPath_-_Copy_18_</title>
    <g id="Symbols" stroke="none" stroke-width="1" fill="none" fill-rule="evenodd">
        <g id="Icons/icon-heart" fill-rule="nonzero">
            <circle id="NoPath_-_Copy_18_" fill="#FE5E33" cx="18" cy="18" r="18"></circle>
            <g id="icon-heart" transform="translate(10.000000, 11.000000)" fill="#FFFFFF">
                <path d="M16.7684365,3.16852783 C16.2062382,1.37333739 14.6421084,0.166428613 12.8772824,0.166428613 C11.7529047,0.166428613 10.6189323,0.605540493 9.76522799,1.37192509 C9.01638576,2.04362809 8.54788718,3.17234487 8.52206829,3.23496335 C8.51469055,3.25583873 8.50731261,3.27522164 8.49993431,3.29162344 C8.4910809,3.2714943 8.48148976,3.24763782 8.47189805,3.22005401 C8.45197765,3.17234105 7.9834923,2.04362427 7.23463118,1.37117695 C6.38102129,0.604792354 5.24712442,0.165680473 4.12257673,0.165680473 C2.35705198,0.165680473 0.794451992,1.37192127 0.23217815,3.16777969 C-0.762349609,6.34450834 1.47607445,10.2523903 6.21849639,13.6213068 C6.86036116,14.0775571 7.98402114,14.7790903 8.0319759,14.8096647 C8.16108735,14.8901813 8.3270894,14.9349112 8.49973788,14.9349112 C8.6723788,14.9349112 8.83838652,14.8901794 8.96823645,14.8096647 C9.01619311,14.7798441 10.1390957,14.0775762 10.7809794,13.6213068 C15.5241379,10.2531537 17.7619009,6.34508089 16.7680531,3.16835225 L16.7684365,3.16852783 Z" id="Path"></path>
            </g>
        </g>
    </g>
</svg>
