<?xml version="1.0" encoding="UTF-8"?>
<svg width="36px" height="36px" viewBox="0 0 36 36" version="1.1" xmlns="http://www.w3.org/2000/svg" xmlns:xlink="http://www.w3.org/1999/xlink">
    <title>NoPath_-_Copy_18_ Copy 2</title>
    <g id="Symbols" stroke="none" stroke-width="1" fill="none" fill-rule="evenodd">
        <g id="Icons/icon-settings" fill-rule="nonzero">
            <circle id="NoPath_-_Copy_18_-Copy-2" fill="#442CB9" cx="18" cy="18" r="18"></circle>
            <g id="icon-settings" transform="translate(10.000000, 10.000000)" fill="#FFFFFF">
                <path d="M16.0703363,6.906267 C15.4222113,6.7608371 15.2302983,6.695756 14.8750323,5.843767 C14.5430053,5.046892 14.6246733,4.835718 14.9799546,4.273919 C15.3870196,3.632441 15.1499546,3.129071 14.8856573,2.864772 L14.1345973,2.113712 C13.8702983,1.849413 13.3682713,1.613011 12.7261133,2.0194147 C12.1643143,2.3753607 11.9783853,2.4570287 11.1562653,2.125 C10.3600533,1.803598 10.2392003,1.577804 10.0937653,0.929696 C9.9270854,0.187935 9.4044663,0 9.0312653,0 L7.9687653,0 C7.5955643,0 7.0722873,0.187935 6.9062653,0.929696 C6.7608354,1.577821 6.6399773,1.803598 5.8437653,2.125 C5.0216623,2.457027 4.8357163,2.375359 4.2739173,2.0200777 C3.6324393,1.6136757 3.1297323,1.8500777 2.8654333,2.1137103 L2.1137103,2.8654333 C1.8500743,3.1297323 1.6136723,3.6324223 2.0200777,4.2739173 C2.3753437,4.8357163 2.4570287,5.0468903 2.125,5.8437653 C1.769734,6.6957543 1.577804,6.7608303 0.929696,6.9062653 C0.187935,7.0722805 0,7.5955643 0,7.9687653 L0,9.0312653 C0,9.4044663 0.187935,9.9277433 0.929696,10.0937653 C1.577821,10.2391952 1.769734,10.3042763 2.125,11.1562653 C2.457027,11.9531403 2.375359,12.1643143 2.0200777,12.7261133 C1.6130127,13.3675913 1.8500777,13.8709613 2.114375,14.1352603 L2.865435,14.8863203 C3.129734,15.1506193 3.631761,15.3870213 4.273919,14.9806176 C4.835718,14.6246716 5.021647,14.5430036 5.843767,14.8750323 C6.639979,15.1970973 6.760832,15.4222283 6.906267,16.0703363 C7.0722822,16.8120973 7.595566,17.0000323 7.968767,17.0000323 L9.031267,17.0000323 C9.404468,17.0000323 9.927082,16.8120973 10.093767,16.0703363 C10.2391969,15.4222113 10.360055,15.1970973 11.156267,14.8750323 C11.97837,14.5430053 12.164316,14.6246733 12.726115,14.9799546 C13.367593,15.3863566 13.8703,15.1506176 14.134599,14.8856573 L14.885659,14.1345973 C15.149958,13.8702983 15.38636,13.3682713 14.9799563,12.7254503 C14.6246903,12.1643143 14.5430053,11.9531403 14.875034,11.1562653 C15.2303,10.3042763 15.42223,10.2392003 16.070338,10.0937653 C16.812099,9.9277501 17.000034,9.4044663 17.000034,9.0312653 L17.000034,7.9687653 C17.000034,7.5955643 16.812099,7.0722873 16.070338,6.9062653 L16.0703363,6.906267 Z M8.5000663,11.156267 C7.0331533,11.156267 5.8438163,9.96693 5.8438163,8.500017 C5.8438163,7.033104 7.0331533,5.843767 8.5000663,5.843767 C9.9669793,5.843767 11.1563163,7.033104 11.1563163,8.500017 C11.1563163,9.96693 9.9669793,11.156267 8.5000663,11.156267 L8.5000663,11.156267 Z" id="Shape"></path>
            </g>
        </g>
    </g>
</svg>
